{
  "accessors": [
    {
      "bufferView": 2,
      "componentType": 5126,
      "count": 1560,
      "max": [
        29.947927474975586,
        53.34477996826172,
        43.35469436645508
      ],
      "min": [
        -28.81666374206543,
        -8.95375919342041,
        -43.58121871948242
      ],
      "type": "VEC3"
    },
    {
      "bufferView": 2,
      "byteOffset": 18720,
      "componentType": 5126,
      "count": 1560,
      "type": "VEC3"
    },
    {
      "bufferView": 3,
      "componentType": 5126,
      "count": 1560,
      "type": "VEC4"
    },
    {
      "bufferView": 1,
      "componentType": 5126,
      "count": 1560,
      "type": "VEC2"
    },
    {
      "bufferView": 1,
      "byteOffset": 12480,
      "componentType": 5126,
      "count": 1560,
      "type": "VEC2"
    },
    {
      "bufferView": 0,
      "componentType": 5125,
      "count": 5790,
      "type": "SCALAR"
    }
  ],
  "asset": {
    "generator": "fab-model-conversion",
    "version": "2.0"
  },
  "bufferViews": [
    {
      "buffer": 0,
      "byteLength": 23160,
      "target": 34963
    },
    {
      "buffer": 0,
      "byteLength": 24960,
      "byteOffset": 23160,
      "byteStride": 8,
      "target": 34962
    },
    {
      "buffer": 0,
      "byteLength": 37440,
      "byteOffset": 48120,
      "byteStride": 12,
      "target": 34962
    },
    {
      "buffer": 0,
      "byteLength": 24960,
      "byteOffset": 85560,
      "byteStride": 16,
      "target": 34962
    }
  ],
  "buffers": [
    {
      "byteLength": 110520,
      "uri": "Mossy_Forest_Rock_vimrfjsaw_Low.bin"
    }
  ],
  "images": [
    {
      "uri": "textures/Mossy_Forest_Rock_vimrfjsaw_Low_1K_albedo.jpeg"
    },
    {
      "uri": "textures/Mossy_Forest_Rock_vimrfjsaw_Low_1K_orm.png"
    },
    {
      "uri": "textures/Mossy_Forest_Rock_vimrfjsaw_Low_1K_normal.jpeg"
    }
  ],
  "materials": [
    {
      "doubleSided": true,
      "name": "Mossy_Forest_Rock_vimrfjsaw_Low",
      "normalTexture": {
        "index": 2
      },
      "occlusionTexture": {
        "index": 1
      },
      "pbrMetallicRoughness": {
        "baseColorTexture": {
          "index": 0
        },
        "metallicFactor": 0.0,
        "metallicRoughnessTexture": {
          "index": 1
        }
      }
    }
  ],
  "meshes": [
    {
      "name": "vimrfjsaw_LOD0_TIER3_000_MatID_1_0",
      "primitives": [
        {
          "attributes": {
            "NORMAL": 1,
            "POSITION": 0,
            "TANGENT": 2,
            "TEXCOORD_0": 3,
            "TEXCOORD_1": 4
          },
          "indices": 5,
          "material": 0,
          "mode": 4
        }
      ]
    }
  ],
  "nodes": [
    {
      "children": [
        1
      ],
      "matrix": [
        1.0,
        0.0,
        0.0,
        0.0,
        0.0,
        2.220446049250313e-16,
        -1.0,
        0.0,
        0.0,
        1.0,
        2.220446049250313e-16,
        0.0,
        0.0,
        0.0,
        0.0,
        1.0
      ],
      "name": "Sketchfab_model"
    },
    {
      "children": [
        2
      ],
      "matrix": [
        0.009999999776482582,
        0.0,
        0.0,
        0.0,
        0.0,
        0.0,
        0.009999999776482582,
        0.0,
        0.0,
        -0.009999999776482582,
        0.0,
        0.0,
        0.0,
        0.0,
        0.0,
        1.0
      ],
      "name": "Mossy_Forest_Rock_vimrfjsaw_Low.fbx"
    },
    {
      "children": [
        3
      ],
      "name": "RootNode"
    },
    {
      "children": [
        4
      ],
      "name": "vimrfjsaw_LOD0_TIER3_000"
    },
    {
      "mesh": 0,
      "name": "vimrfjsaw_LOD0_TIER3_000_MatID_1_0"
    }
  ],
  "samplers": [
    {
      "magFilter": 9729,
      "minFilter": 9987,
      "wrapS": 10497,
      "wrapT": 10497
    }
  ],
  "scene": 0,
  "scenes": [
    {
      "name": "Sketchfab_Scene",
      "nodes": [
        0
      ]
    }
  ],
  "textures": [
    {
      "sampler": 0,
      "source": 0
    },
    {
      "sampler": 0,
      "source": 1
    },
    {
      "sampler": 0,
      "source": 2
    }
  ]
}
